<svg xmlns="http://www.w3.org/2000/svg" width="1462" height="1462" viewBox="0 0 1462 1462"><defs><style>.a{fill:#16db8b;}.b{fill:#e4eded;}.c{fill:#231f20;}</style></defs><title>BatteryMetrics FullColor</title><polygon class="a" points="543.5 683.63 634.82 774.95 724.3 687.35 768.17 731.21 828.79 668.71 918.5 758.41 918.5 1113.76 543.5 1113.76 543.5 683.63"/><polygon class="b" points="543.5 369.02 543.5 683.63 634.82 774.95 724.3 687.35 768.17 731.21 828.79 668.71 918.5 758.41 918.5 369.02 543.5 369.02"/><rect class="c" x="678.11" y="992.75" width="105.77" height="40"/><path class="c" d="M918.5,329H817.84V317.74a52.06,52.06,0,0,0-52-52H696.16a52.06,52.06,0,0,0-52,52V329H543.5a40,40,0,0,0-40,40v744.74a40,40,0,0,0,40,40h375a40,40,0,0,0,40-40V369A40,40,0,0,0,918.5,329Zm0,40V730.13l-89.93-89.93L768,702.71l-43.5-43.5L635,746.81l-90.64-90.64c-.27-.27-.55-.5-.83-.75V369Zm-375,744.74V711.91l91.17,91.17,89.49-87.6,44.23,44.23L829,697.21l88.66,88.66c.27.27.55.5.83.75v327.14Z"/><rect class="c" x="357.12" y="1047.75" width="96.59" height="40"/><rect class="c" x="357.11" y="824.75" width="96.59" height="40"/><rect class="c" x="397.97" y="937.75" width="55.77" height="40"/><rect class="c" x="397.97" y="717.75" width="55.77" height="40"/><rect class="c" x="397.97" y="497.75" width="55.77" height="40"/><rect class="c" x="357.12" y="607.75" width="96.59" height="40"/><rect class="c" x="357.12" y="387.75" width="96.59" height="40"/><rect class="c" x="1008.16" y="1047.75" width="96.59" height="40"/><rect class="c" x="1008.16" y="824.75" width="96.59" height="40"/><rect class="c" x="1008.11" y="937.75" width="55.77" height="40"/><rect class="c" x="1008.12" y="717.75" width="55.77" height="40"/><rect class="c" x="1008.12" y="497.75" width="55.77" height="40"/><rect class="c" x="1008.16" y="607.75" width="96.59" height="40"/><rect class="c" x="1008.16" y="387.75" width="96.59" height="40"/></svg>